<svg width="623" height="761" viewBox="0 0 623 761" fill="none" xmlns="http://www.w3.org/2000/svg">
<rect width="329" height="25" rx="12.5" transform="matrix(-1 0 0 1 368 0)" fill="#6366F1"/>
<rect width="508" height="25" rx="12.5" transform="matrix(-1 0 0 1 581 38)" fill="#5EEAD4"/>
<rect width="359" height="25" rx="12.5" transform="matrix(-1 0 0 1 465 76)" fill="#EC4899"/>
<rect width="25" height="25" rx="12.5" transform="matrix(-1 0 0 1 25 104)" fill="#6366F1"/>
<rect width="25" height="25" rx="12.5" transform="matrix(-1 0 0 1 64 38)" fill="#5EEAD4"/>
<rect width="25" height="25" rx="12.5" transform="matrix(-1 0 0 1 98 76)" fill="#EC4899"/>
<rect width="25" height="25" rx="12.5" transform="matrix(-1 0 0 1 25 0)" fill="#6366F1"/>
<rect width="329" height="25" rx="12.5" transform="matrix(-1 0 0 1 368 321)" fill="#6366F1"/>
<rect width="508" height="25" rx="12.5" transform="matrix(-1 0 0 1 581 359)" fill="#5EEAD4"/>
<rect width="359" height="25" rx="12.5" transform="matrix(-1 0 0 1 465 397)" fill="#EC4899"/>
<rect width="25" height="25" rx="12.5" transform="matrix(-1 0 0 1 25 425)" fill="#6366F1"/>
<rect width="25" height="25" rx="12.5" transform="matrix(-1 0 0 1 64 359)" fill="#5EEAD4"/>
<rect width="25" height="25" rx="12.5" transform="matrix(-1 0 0 1 98 397)" fill="#EC4899"/>
<rect width="25" height="25" rx="12.5" transform="matrix(-1 0 0 1 498 397)" fill="#EC4899"/>
<rect width="25" height="25" rx="12.5" transform="matrix(-1 0 0 1 615 359)" fill="#5EEAD4"/>
<rect width="25" height="25" rx="12.5" transform="matrix(-1 0 0 1 25 321)" fill="#6366F1"/>
<rect width="508" height="25" rx="12.5" transform="matrix(-1 0 0 1 583 180)" fill="#5EEAD4"/>
<rect width="359" height="25" rx="12.5" transform="matrix(-1 0 0 1 467 218)" fill="#EC4899"/>
<rect width="359" height="25" rx="12.5" transform="matrix(-1 0 0 1 467 253)" fill="#EC4899"/>
<rect width="25" height="25" rx="12.5" transform="matrix(-1 0 0 1 25 283)" fill="#3B82F6"/>
<rect width="25" height="25" rx="12.5" transform="matrix(-1 0 0 1 66 180)" fill="#5EEAD4"/>
<rect width="25" height="25" rx="12.5" transform="matrix(-1 0 0 1 100 218)" fill="#EC4899"/>
<rect width="25" height="25" rx="12.5" transform="matrix(-1 0 0 1 100 253)" fill="#EC4899"/>
<rect width="25" height="25" rx="12.5" transform="matrix(-1 0 0 1 500 218)" fill="#EC4899"/>
<rect width="25" height="25" rx="12.5" transform="matrix(-1 0 0 1 500 253)" fill="#EC4899"/>
<rect width="25" height="25" rx="12.5" transform="matrix(-1 0 0 1 617 180)" fill="#5EEAD4"/>
<rect width="25" height="25" rx="12.5" transform="matrix(-1 0 0 1 25 142)" fill="#6366F1"/>
<rect width="580" height="25" rx="12.5" transform="matrix(-1 0 0 1 619 142)" fill="#6366F1"/>
<rect width="329" height="25" rx="12.5" transform="matrix(-1 0 0 1 372 632)" fill="#6366F1"/>
<rect width="508" height="25" rx="12.5" transform="matrix(-1 0 0 1 585 670)" fill="#5EEAD4"/>
<rect width="359" height="25" rx="12.5" transform="matrix(-1 0 0 1 469 708)" fill="#EC4899"/>
<rect width="25" height="25" rx="12.5" transform="matrix(-1 0 0 1 29 736)" fill="#6366F1"/>
<rect width="25" height="25" rx="12.5" transform="matrix(-1 0 0 1 68 670)" fill="#5EEAD4"/>
<rect width="25" height="25" rx="12.5" transform="matrix(-1 0 0 1 102 708)" fill="#EC4899"/>
<rect width="25" height="25" rx="12.5" transform="matrix(-1 0 0 1 502 708)" fill="#EC4899"/>
<rect width="25" height="25" rx="12.5" transform="matrix(-1 0 0 1 619 670)" fill="#5EEAD4"/>
<rect width="25" height="25" rx="12.5" transform="matrix(-1 0 0 1 29 632)" fill="#6366F1"/>
<rect width="508" height="25" rx="12.5" transform="matrix(-1 0 0 1 587 491)" fill="#5EEAD4"/>
<rect width="359" height="25" rx="12.5" transform="matrix(-1 0 0 1 471 529)" fill="#EC4899"/>
<rect width="359" height="25" rx="12.5" transform="matrix(-1 0 0 1 471 564)" fill="#EC4899"/>
<rect width="25" height="25" rx="12.5" transform="matrix(-1 0 0 1 29 594)" fill="#3B82F6"/>
<rect width="25" height="25" rx="12.5" transform="matrix(-1 0 0 1 70 491)" fill="#5EEAD4"/>
<rect width="25" height="25" rx="12.5" transform="matrix(-1 0 0 1 104 529)" fill="#EC4899"/>
<rect width="25" height="25" rx="12.5" transform="matrix(-1 0 0 1 104 564)" fill="#EC4899"/>
<rect width="25" height="25" rx="12.5" transform="matrix(-1 0 0 1 504 529)" fill="#EC4899"/>
<rect width="25" height="25" rx="12.5" transform="matrix(-1 0 0 1 504 564)" fill="#EC4899"/>
<rect width="25" height="25" rx="12.5" transform="matrix(-1 0 0 1 621 491)" fill="#5EEAD4"/>
<rect width="25" height="25" rx="12.5" transform="matrix(-1 0 0 1 29 453)" fill="#6366F1"/>
<rect width="580" height="25" rx="12.5" transform="matrix(-1 0 0 1 623 453)" fill="#6366F1"/>
</svg>
